<svg id="Lager_1" style="enable-background:new -265 388.9 64 64;" version="1.1" viewBox="-265 388.9 64 64" xml:space="preserve" xmlns="http://www.w3.org/2000/svg" xmlns:xlink="http://www.w3.org/1999/xlink"><path d="M-231.1,405.8l1.8,6.7c0.3,1,1.4,1.6,2.4,1.3l7.3-1.9c2-0.5,3.4,1.7,1.9,3l-5.5,4.8c-0.8,0.7-0.8,1.9,0,2.6l5.5,4.8  c1.5,1.3,0.1,3.5-1.9,3l-7.3-1.9c-1.1-0.3-2.2,0.3-2.4,1.3l-1.8,6.7c-0.5,1.8-3.3,1.8-3.8,0l-1.8-6.7c-0.3-1-1.4-1.6-2.4-1.3  l-7.3,1.9c-2,0.5-3.4-1.7-1.9-3l5.5-4.8c0.8-0.7,0.8-1.9,0-2.6l-5.5-4.8c-1.5-1.3-0.1-3.5,1.9-3l7.3,1.9c1.1,0.3,2.2-0.3,2.4-1.3  l1.8-6.7C-234.4,404-231.6,404-231.1,405.8z"/></svg>